<svg viewBox="0 0 200 200" xmlns="http://www.w3.org/2000/svg">
  <path d="
    M100 20
    C140 20 160 45 160 70
    C160 95 135 105 120 115
    C110 122 105 130 105 145
    L105 150
    L95 150
    L95 142
    C95 125 105 115 118 105
    C130 95 140 88 140 70
    C140 52 125 40 100 40
    C80 40 65 50 60 65
    L42 60
    C50 38 72 20 100 20 Z"
    fill="#38bdf8"/>

  <circle cx="85" cy="70" r="6" fill="#0f172a"/>
  <circle cx="115" cy="70" r="6" fill="#0f172a"/>

  <path d="M90 90 Q100 95 110 90"
        stroke="#0f172a" stroke-width="4" fill="none"/>

  <circle cx="100" cy="170" r="8" fill="#22c55e"/>
  <circle cx="75" cy="35" r="6" fill="#e5e7eb" opacity="0.8"/>
</svg>
